<svg width="33" height="34" viewBox="0 0 33 34" fill="none" xmlns="http://www.w3.org/2000/svg">
<path d="M16.3895 8.62147C11.7397 8.62147 7.98913 12.372 7.98913 17.0218C7.98913 21.6717 11.7397 25.4222 16.3895 25.4222C21.0393 25.4222 24.7899 21.6717 24.7899 17.0218C24.7899 12.372 21.0393 8.62147 16.3895 8.62147ZM16.3895 22.4832C13.3847 22.4832 10.9282 20.034 10.9282 17.0218C10.9282 14.0097 13.3774 11.5605 16.3895 11.5605C19.4017 11.5605 21.8508 14.0097 21.8508 17.0218C21.8508 20.034 19.3943 22.4832 16.3895 22.4832ZM27.0929 8.27785C27.0929 9.36719 26.2155 10.2372 25.1335 10.2372C24.0442 10.2372 23.1741 9.35988 23.1741 8.27785C23.1741 7.19582 24.0515 6.31849 25.1335 6.31849C26.2155 6.31849 27.0929 7.19582 27.0929 8.27785ZM32.6566 10.2665C32.5323 7.64179 31.9328 5.31688 30.01 3.40139C28.0945 1.4859 25.7696 0.886396 23.1449 0.754797C20.4398 0.601266 12.3319 0.601266 9.6268 0.754797C7.00945 0.879085 4.68454 1.47859 2.76174 3.39408C0.838941 5.30957 0.246747 7.63448 0.115149 10.2591C-0.0383829 12.9642 -0.0383829 21.0722 0.115149 23.7772C0.239436 26.4019 0.838941 28.7268 2.76174 30.6423C4.68454 32.5578 7.00214 33.1573 9.6268 33.2889C12.3319 33.4424 20.4398 33.4424 23.1449 33.2889C25.7696 33.1646 28.0945 32.5651 30.01 30.6423C31.9255 28.7268 32.525 26.4019 32.6566 23.7772C32.8101 21.0722 32.8101 12.9715 32.6566 10.2665ZM29.1619 26.6797C28.5916 28.1127 27.4877 29.2166 26.0474 29.7942C23.8906 30.6496 18.7729 30.4522 16.3895 30.4522C14.0061 30.4522 8.88108 30.6423 6.73163 29.7942C5.29867 29.224 4.19471 28.12 3.61713 26.6797C2.76174 24.523 2.95914 19.4052 2.95914 17.0218C2.95914 14.6384 2.76905 9.51341 3.61713 7.36397C4.18739 5.93101 5.29136 4.82704 6.73163 4.24947C8.88839 3.39408 14.0061 3.59148 16.3895 3.59148C18.7729 3.59148 23.8979 3.40139 26.0474 4.24947C27.4803 4.81973 28.5843 5.9237 29.1619 7.36397C30.0173 9.52072 29.8199 14.6384 29.8199 17.0218C29.8199 19.4052 30.0173 24.5303 29.1619 26.6797Z" fill="#4F7DF3"/>
</svg>
