<svg width="38" height="32" viewBox="0 0 38 32" fill="none" xmlns="http://www.w3.org/2000/svg">
<path d="M34.1521 8.21636C34.1758 8.54887 34.1758 8.88145 34.1758 9.21395C34.1758 19.3558 26.4566 31.0416 12.3482 31.0416C8.00161 31.0416 3.96387 29.7827 0.567383 27.5977C1.18495 27.6689 1.77867 27.6927 2.42 27.6927C6.00643 27.6927 9.30794 26.4814 11.9444 24.415C8.57165 24.3437 5.7452 22.1348 4.77137 19.0946C5.24644 19.1658 5.72144 19.2133 6.22027 19.2133C6.90904 19.2133 7.59789 19.1183 8.23914 18.9521C4.72392 18.2395 2.08742 15.1518 2.08742 11.4228V11.3279C3.1087 11.8979 4.29637 12.2542 5.55512 12.3016C3.48872 10.924 2.13494 8.57263 2.13494 5.91244C2.13494 4.48737 2.5149 3.18104 3.17998 2.04095C6.95649 6.69625 12.6331 9.7364 18.9985 10.069C18.8798 9.49894 18.8085 8.90521 18.8085 8.31141C18.8085 4.08358 22.2287 0.639648 26.4802 0.639648C28.6891 0.639648 30.6842 1.56596 32.0856 3.06231C33.8194 2.7298 35.482 2.08848 36.9547 1.20969C36.3846 2.9911 35.1733 4.48744 33.582 5.43744C35.1258 5.27126 36.6222 4.84364 37.9997 4.24991C36.9548 5.76995 35.6484 7.12373 34.1521 8.21636Z" fill="#4F7DF3"/>
</svg>
